<mxfile host="65bd71144e">
    <diagram id="krQwQKbjZlAoTZ7SVRU2" name="Page-1">
        <mxGraphModel dx="1136" dy="599" grid="1" gridSize="10" guides="1" tooltips="1" connect="1" arrows="1" fold="1" page="1" pageScale="1" pageWidth="827" pageHeight="1169" math="0" shadow="0">
            <root>
                <mxCell id="0"/>
                <mxCell id="1" parent="0"/>
                <mxCell id="34" value="personagem" style="swimlane;fontStyle=1;align=center;verticalAlign=top;childLayout=stackLayout;horizontal=1;startSize=26;horizontalStack=0;resizeParent=1;resizeParentMax=0;resizeLast=0;collapsible=1;marginBottom=0;" parent="1" vertex="1">
                    <mxGeometry x="240" y="60" width="160" height="104" as="geometry"/>
                </mxCell>
                <mxCell id="54" value="+ nome: string" style="text;strokeColor=none;fillColor=none;align=left;verticalAlign=top;spacingLeft=4;spacingRight=4;overflow=hidden;rotatable=0;points=[[0,0.5],[1,0.5]];portConstraint=eastwest;" parent="34" vertex="1">
                    <mxGeometry y="26" width="160" height="26" as="geometry"/>
                </mxCell>
                <mxCell id="55" value="+ classe: string" style="text;strokeColor=none;fillColor=none;align=left;verticalAlign=top;spacingLeft=4;spacingRight=4;overflow=hidden;rotatable=0;points=[[0,0.5],[1,0.5]];portConstraint=eastwest;" parent="34" vertex="1">
                    <mxGeometry y="52" width="160" height="26" as="geometry"/>
                </mxCell>
                <mxCell id="35" value="+ idade: int" style="text;strokeColor=none;fillColor=none;align=left;verticalAlign=top;spacingLeft=4;spacingRight=4;overflow=hidden;rotatable=0;points=[[0,0.5],[1,0.5]];portConstraint=eastwest;" parent="34" vertex="1">
                    <mxGeometry y="78" width="160" height="26" as="geometry"/>
                </mxCell>
                <mxCell id="38" value="arna" style="swimlane;fontStyle=1;align=center;verticalAlign=top;childLayout=stackLayout;horizontal=1;startSize=26;horizontalStack=0;resizeParent=1;resizeParentMax=0;resizeLast=0;collapsible=1;marginBottom=0;" parent="1" vertex="1">
                    <mxGeometry x="440" y="280" width="160" height="78" as="geometry"/>
                </mxCell>
                <mxCell id="39" value="+ dano: int" style="text;strokeColor=none;fillColor=none;align=left;verticalAlign=top;spacingLeft=4;spacingRight=4;overflow=hidden;rotatable=0;points=[[0,0.5],[1,0.5]];portConstraint=eastwest;" parent="38" vertex="1">
                    <mxGeometry y="26" width="160" height="26" as="geometry"/>
                </mxCell>
                <mxCell id="56" value="+ descricao: string" style="text;strokeColor=none;fillColor=none;align=left;verticalAlign=top;spacingLeft=4;spacingRight=4;overflow=hidden;rotatable=0;points=[[0,0.5],[1,0.5]];portConstraint=eastwest;" parent="38" vertex="1">
                    <mxGeometry y="52" width="160" height="26" as="geometry"/>
                </mxCell>
                <mxCell id="42" value="habilidade" style="swimlane;fontStyle=1;align=center;verticalAlign=top;childLayout=stackLayout;horizontal=1;startSize=26;horizontalStack=0;resizeParent=1;resizeParentMax=0;resizeLast=0;collapsible=1;marginBottom=0;" parent="1" vertex="1">
                    <mxGeometry x="40" y="280" width="160" height="52" as="geometry"/>
                </mxCell>
                <mxCell id="43" value="+ descricao: string" style="text;strokeColor=none;fillColor=none;align=left;verticalAlign=top;spacingLeft=4;spacingRight=4;overflow=hidden;rotatable=0;points=[[0,0.5],[1,0.5]];portConstraint=eastwest;" parent="42" vertex="1">
                    <mxGeometry y="26" width="160" height="26" as="geometry"/>
                </mxCell>
                <mxCell id="48" value="" style="endArrow=diamondThin;endFill=1;endSize=24;html=1;exitX=1;exitY=0.5;exitDx=0;exitDy=0;entryX=0.242;entryY=1.062;entryDx=0;entryDy=0;entryPerimeter=0;" parent="1" source="43" target="35" edge="1">
                    <mxGeometry width="160" relative="1" as="geometry">
                        <mxPoint x="370" y="290" as="sourcePoint"/>
                        <mxPoint x="280" y="170" as="targetPoint"/>
                        <Array as="points">
                            <mxPoint x="280" y="320"/>
                        </Array>
                    </mxGeometry>
                </mxCell>
                <mxCell id="49" value="1" style="text;html=1;strokeColor=none;fillColor=none;align=center;verticalAlign=middle;whiteSpace=wrap;rounded=0;" parent="1" vertex="1">
                    <mxGeometry x="380" y="164" width="60" height="30" as="geometry"/>
                </mxCell>
                <mxCell id="50" value="0..*" style="text;html=1;strokeColor=none;fillColor=none;align=center;verticalAlign=middle;whiteSpace=wrap;rounded=0;" parent="1" vertex="1">
                    <mxGeometry x="380" y="280" width="60" height="30" as="geometry"/>
                </mxCell>
                <mxCell id="51" value="1" style="text;html=1;strokeColor=none;fillColor=none;align=center;verticalAlign=middle;whiteSpace=wrap;rounded=0;" parent="1" vertex="1">
                    <mxGeometry x="200" y="164" width="60" height="30" as="geometry"/>
                </mxCell>
                <mxCell id="52" value="1..*" style="text;html=1;strokeColor=none;fillColor=none;align=center;verticalAlign=middle;whiteSpace=wrap;rounded=0;" parent="1" vertex="1">
                    <mxGeometry x="200" y="280" width="60" height="30" as="geometry"/>
                </mxCell>
                <mxCell id="57" value="" style="endArrow=diamondThin;endFill=1;endSize=24;html=1;exitX=0;exitY=0.5;exitDx=0;exitDy=0;entryX=0.744;entryY=1.231;entryDx=0;entryDy=0;entryPerimeter=0;" edge="1" parent="1" source="39" target="35">
                    <mxGeometry width="160" relative="1" as="geometry">
                        <mxPoint x="260" y="347.39" as="sourcePoint"/>
                        <mxPoint x="338.72" y="194.00199999999995" as="targetPoint"/>
                        <Array as="points">
                            <mxPoint x="359" y="319"/>
                        </Array>
                    </mxGeometry>
                </mxCell>
            </root>
        </mxGraphModel>
    </diagram>
</mxfile>